<?xml version="1.0" standalone="no"?>
<!DOCTYPE svg PUBLIC "-//W3C//DTD SVG 20010904//EN"
 "http://www.w3.org/TR/2001/REC-SVG-20010904/DTD/svg10.dtd">
<svg version="1.0" xmlns="http://www.w3.org/2000/svg"
 width="10246.000000pt" height="10246.000000pt" viewBox="0 0 10246.000000 10246.000000"
 preserveAspectRatio="xMidYMid meet">

<g transform="translate(0.000000,10246.000000) scale(0.100000,-0.100000)"
fill="#fff" stroke="none">
<path d="M0 51235 l0 -51225 51230 0 51230 0 0 51225 0 51225 -51230 0 -51230
0 0 -51225z m36843 28730 c1999 -262 3879 -834 5647 -1716 965 -482 1807
-1001 2636 -1625 306 -230 810 -641 989 -808 l60 -55 -11751 -1 c-6463 0
-11753 3 -11756 6 -11 11 281 263 620 536 2292 1843 5091 3078 8092 3572 244
40 584 90 785 115 39 5 1047 9 2241 10 l2172 1 265 -35z m33448 0 c3238 -425
6243 -1689 8694 -3656 121 -97 303 -248 404 -335 101 -88 195 -167 207 -177
13 -10 24 -23 24 -28 0 -5 -4670 -9 -11755 -9 -6465 0 -11755 1 -11755 3 0 5
186 167 360 313 1691 1423 3715 2526 5880 3206 1010 317 2008 537 3090 683
l245 33 2171 1 2172 1 263 -35z m-23370 -4913 c1055 -1072 1923 -2252 2602
-3537 l117 -220 -15222 -3 c-8372 -1 -15223 0 -15225 2 -5 5 164 328 287 547
561 1000 1270 1973 2069 2839 68 74 237 249 375 388 l251 252 12241 0 12242 0
263 -268z m33231 226 c62 -51 484 -490 668 -693 816 -902 1485 -1839 2059
-2883 106 -193 211 -396 211 -407 0 -3 -6849 -5 -15220 -5 -8371 0 -15220 2
-15220 5 0 10 93 191 186 363 684 1257 1506 2357 2565 3435 l224 228 12239 -1
12238 0 50 -42z m-30157 -4745 c78 -176 247 -603 323 -813 312 -870 532 -1735
667 -2625 19 -126 35 -240 35 -252 l0 -23 -16610 0 -16609 0 4 28 c3 15 14 92
25 172 109 768 310 1609 565 2375 119 354 337 921 453 1178 l31 67 15534 0
15535 0 47 -107z m33484 -64 c472 -1109 796 -2249 970 -3421 17 -114 31 -212
31 -218 0 -7 -5229 -10 -16610 -10 -11022 0 -16610 3 -16610 10 0 32 68 462
105 668 184 1005 483 2001 880 2935 l89 207 15536 0 15536 0 73 -171z m-32365
-4586 c3 -43 11 -195 16 -338 6 -142 12 -261 14 -262 1 -2 6 104 9 234 4 131
10 284 13 341 l7 102 16697 0 16697 0 6 -107 c52 -891 16 -1810 -108 -2733
-33 -241 -109 -724 -121 -762 -5 -17 -1595 -18 -33204 -18 l-33198 0 -6 28
c-87 438 -180 1180 -222 1772 -30 425 -29 1637 2 1793 l6 27 16693 0 16692 0
7 -77z m32976 -4715 c-213 -885 -566 -1997 -952 -3002 -55 -144 -102 -269
-105 -279 -5 -16 -1530 -17 -31890 -15 l-31885 3 -79 205 c-340 884 -624 1741
-844 2545 -76 276 -165 626 -165 645 0 7 10146 10 32974 10 l32973 0 -27 -112z
m-1605 -4588 c-9 -28 -229 -515 -350 -775 -286 -615 -727 -1495 -1072 -2140
l-140 -260 -29778 0 -29778 0 -47 85 c-414 747 -1198 2340 -1511 3068 l-18 42
31350 0 31350 0 -6 -20z m-2409 -4675 c-8 -21 -214 -372 -439 -745 -368 -612
-818 -1329 -1219 -1944 l-188 -289 -27081 -1 c-24196 -1 -27081 0 -27093 14
-35 42 -583 895 -886 1380 -341 546 -935 1530 -956 1583 -6 16 1943 17 28931
17 25820 0 28937 -2 28931 -15z m-2996 -4671 c0 -14 -647 -926 -1024 -1444
-233 -320 -553 -754 -810 -1097 l-181 -243 -23916 0 -23916 0 -278 372 c-510
681 -990 1341 -1450 1993 -144 205 -270 384 -280 399 l-17 26 25936 0 c14265
0 25936 -3 25936 -6z m-3617 -4846 c-439 -553 -987 -1224 -1551 -1901 l-423
-507 -20337 0 -20337 0 -70 83 c-511 603 -1350 1625 -1923 2345 l-122 152
22450 0 22450 0 -137 -172z m-3824 -4545 c-20 -21 -109 -121 -200 -223 -417
-471 -1077 -1197 -1615 -1779 l-309 -333 -8420 1 c-4631 1 -11993 1 -16361 1
l-7941 0 -240 258 c-576 618 -1725 1884 -1901 2095 -14 16 868 17 18503 17
l18519 0 -35 -37z m-4367 -4670 c-28 -39 -1234 -1237 -1742 -1730 l-425 -413
-11947 0 -11946 0 -31 26 c-17 14 -28 31 -24 36 3 6 1 8 -4 5 -6 -4 -13 0 -17
8 -3 8 -13 15 -21 15 -9 0 -13 5 -10 10 3 6 0 10 -7 10 -7 0 -84 72 -171 160
-87 88 -163 160 -169 160 -5 0 -7 7 -4 16 3 9 2 12 -5 8 -13 -8 -440 416 -432
430 3 5 1 6 -5 2 -13 -8 -296 266 -287 277 3 4 2 5 -2 2 -11 -8 -43 27 -36 39
3 6 3 8 -2 4 -11 -11 -36 12 -28 26 3 6 3 8 -2 4 -11 -11 -36 12 -28 25 3 5 2
7 -4 4 -12 -8 -150 133 -145 148 2 5 0 7 -4 2 -11 -10 -45 23 -37 37 3 6 3 8
-1 4 -11 -9 -36 14 -28 26 3 5 1 6 -5 3 -11 -7 -56 36 -48 46 3 4 2 5 -1 3 -9
-7 -33 18 -26 28 3 5 1 6 -5 3 -10 -7 -66 45 -64 60 1 4 -3 8 -7 8 -16 0 -271
259 -265 269 3 6 3 8 -2 4 -9 -9 -141 120 -137 134 1 5 -1 7 -6 4 -12 -7 -63
50 -54 60 4 4 2 4 -5 0 -12 -6 -28 10 -28 29 0 6 -5 10 -12 10 -7 0 -18 6 -24
13 -10 10 2816 12 14130 12 l14142 0 -19 -27z m-4892 -4672 c-14 -11 -45 -38
-69 -60 -24 -22 -49 -38 -55 -34 -6 3 -8 3 -4 -2 11 -12 -60 -78 -74 -69 -6 4
-8 3 -5 -3 8 -12 -82 -95 -95 -87 -5 3 -7 0 -6 -8 2 -7 -3 -12 -9 -11 -7 2
-12 -1 -10 -5 4 -15 -112 -114 -124 -106 -7 4 -9 3 -5 -4 8 -14 -333 -314
-347 -305 -6 3 -7 1 -3 -5 4 -6 -14 -27 -41 -49 -50 -40 -86 -70 -132 -113
-63 -58 -136 -115 -143 -113 -4 2 -7 -1 -5 -6 4 -15 -313 -282 -326 -274 -7 3
-9 2 -4 -2 9 -10 -33 -56 -45 -49 -4 3 -11 -2 -14 -10 -3 -9 -10 -13 -15 -10
-5 3 -9 0 -9 -6 0 -6 -5 -8 -10 -5 -6 4 -9 1 -8 -7 2 -7 -5 -12 -14 -12 -9 1
-14 -4 -12 -10 4 -10 -90 -101 -105 -101 -3 0 -21 -16 -41 -35 -50 -49 -89
-80 -99 -80 -5 0 -12 -7 -15 -16 -3 -9 -13 -14 -21 -11 -9 4 -12 1 -9 -8 3 -7
-3 -18 -14 -24 -11 -6 -26 -17 -34 -24 -7 -7 -57 -50 -111 -96 -80 -69 -100
-81 -112 -71 -8 7 -12 17 -8 23 4 6 1 7 -6 3 -9 -6 -9 -12 3 -25 15 -16 13
-20 -25 -52 -23 -19 -48 -40 -56 -48 -12 -11 -17 -10 -36 5 -18 16 -20 16 -8
1 13 -16 -316 -17 -6955 -15 -5459 2 -6968 6 -6967 15 2 7 -3 10 -10 7 -14 -5
-96 54 -96 69 -1 5 4 5 11 1 7 -4 8 -3 4 4 -4 6 -13 9 -21 6 -8 -4 -18 1 -21
10 -3 9 -12 16 -19 16 -13 0 -52 39 -47 48 1 3 -5 7 -14 8 -9 1 -28 13 -43 25
-49 44 -83 74 -111 102 -15 15 -31 27 -34 27 -5 0 -148 118 -221 183 -11 9
-38 33 -59 52 -32 28 -35 34 -18 30 13 -2 20 0 17 5 -3 5 -15 7 -26 5 -25 -5
-132 82 -122 98 3 6 1 7 -5 3 -6 -4 -32 13 -57 37 -25 24 -47 42 -49 40 -2 -2
-17 12 -35 32 -17 20 -31 33 -31 30 0 -3 -55 42 -122 101 -68 58 -122 110
-121 115 2 5 0 8 -5 7 -13 -5 -82 54 -75 65 3 5 2 7 -4 4 -5 -3 -28 11 -51 31
-23 20 -65 57 -94 82 -29 25 -69 62 -89 83 -21 20 -41 37 -45 37 -5 0 -23 14
-41 32 -32 31 -32 32 -15 52 17 21 17 21 -5 3 -22 -20 -49 -15 -37 6 4 7 3 9
-1 4 -10 -9 -56 32 -49 44 3 5 -1 6 -9 3 -8 -3 -25 7 -38 23 -13 16 -39 39
-56 51 -31 22 -48 52 -20 36 9 -6 8 -3 -1 8 -8 9 -19 15 -25 12 -14 -5 -153
115 -149 128 1 4 -2 7 -6 6 -7 -3 -202 161 -202 169 0 2 4161 3 9248 3 9051
-1 9246 -1 9222 -19z m-5872 -4686 c-20 -14 -42 -25 -47 -25 -6 0 -11 -5 -11
-11 0 -6 -7 -8 -16 -5 -8 3 -13 2 -10 -3 8 -12 -72 -63 -86 -55 -6 4 -8 3 -5
-3 9 -14 -40 -46 -55 -37 -6 4 -8 3 -5 -2 6 -10 -82 -71 -95 -66 -5 1 -8 -2
-8 -7 0 -4 -22 -21 -48 -38 -43 -27 -49 -28 -62 -13 -8 8 -12 11 -7 6 4 -6 7
-15 7 -22 0 -13 -48 -47 -67 -47 -7 0 -11 -3 -8 -5 8 -9 -136 -93 -147 -86 -6
4 -8 3 -5 -3 8 -12 -56 -54 -84 -56 -10 -1 -16 -4 -13 -8 2 -4 -64 -48 -148
-98 -147 -89 -152 -91 -172 -74 -18 16 -19 16 -7 1 16 -21 5 -41 -19 -35 -13
3 -17 0 -13 -9 5 -12 -8 -19 -29 -15 -5 0 -8 -4 -8 -10 0 -6 -7 -9 -15 -6 -8
4 -17 1 -21 -5 -4 -7 -3 -8 4 -4 7 4 12 5 12 2 0 -3 -18 -15 -41 -27 -26 -13
-39 -16 -34 -7 4 7 -2 3 -12 -8 -31 -37 -55 -45 -78 -26 -11 9 -14 10 -7 2 19
-22 15 -30 -30 -50 -24 -11 -56 -29 -73 -40 -34 -23 -50 -26 -39 -7 4 6 5 10
1 7 -3 -3 -5 -9 -5 -14 -1 -8 -115 -76 -128 -76 -3 0 -2 5 2 12 4 7 3 8 -5 4
-6 -4 -9 -11 -6 -16 8 -13 -22 -19 -34 -7 -9 9 -11 8 -6 -4 4 -11 -10 -23 -54
-44 -33 -15 -63 -27 -67 -26 -4 2 -10 -2 -13 -7 -9 -13 -151 -84 -151 -75 0 5
-4 2 -9 -6 -8 -13 -12 -13 -27 0 -10 8 -15 9 -11 2 9 -14 -37 -48 -52 -39 -5
4 -14 -1 -19 -9 -5 -9 -15 -17 -23 -18 -8 -2 -20 -6 -26 -10 -7 -5 -18 -5 -25
-1 -6 4 -8 3 -5 -3 7 -11 -251 -124 -290 -126 -12 -1 -19 -4 -17 -6 5 -5 -76
-38 -111 -46 -11 -2 -51 -16 -88 -30 -38 -14 -66 -21 -62 -16 3 5 0 13 -6 17
-8 4 -9 3 -5 -5 10 -16 -41 -36 -167 -66 -93 -22 -131 -29 -209 -39 -14 -2
-31 -6 -36 -10 -21 -12 -250 -18 -272 -6 -17 9 -21 9 -15 0 5 -9 1 -10 -14 -5
-12 4 -42 7 -66 7 -25 0 -47 3 -50 8 -3 4 -14 6 -25 3 -11 -3 -28 -2 -37 2
-10 5 -31 10 -48 12 -16 3 -33 10 -37 16 -6 9 -8 9 -8 0 0 -9 -7 -10 -26 -3
-14 6 -39 12 -57 15 -62 11 -117 28 -123 36 -3 5 0 8 7 7 7 -2 14 6 16 17 2
15 1 16 -5 5 -6 -13 -13 -17 -39 -21 -18 -3 -34 2 -30 9 3 4 -5 8 -16 8 -25 2
-33 4 -99 24 -27 8 -48 18 -48 22 0 4 -7 5 -15 2 -17 -7 -20 6 -5 24 5 7 3 6
-6 -2 -15 -13 -24 -12 -73 6 -31 11 -60 24 -65 29 -6 5 -16 9 -24 9 -7 0 -37
11 -65 24 -29 13 -69 30 -89 37 -20 7 -34 17 -31 22 3 6 1 7 -5 4 -15 -10 -43
3 -35 16 3 6 1 7 -5 3 -15 -9 -153 54 -145 67 3 5 1 7 -5 4 -13 -9 -42 2 -42
15 0 5 5 6 12 2 7 -4 8 -3 4 5 -6 8 -12 9 -20 2 -7 -6 -16 -8 -20 -4 -3 4 -12
8 -19 9 -29 5 -166 81 -160 89 5 4 3 5 -4 1 -13 -7 -63 13 -63 26 0 4 -6 7
-12 6 -7 -2 -12 3 -10 10 1 8 -2 11 -7 8 -11 -7 -61 13 -61 24 0 4 -6 7 -12 7
-23 0 -188 95 -183 104 4 5 -2 6 -11 2 -12 -4 -15 -3 -10 5 4 7 2 10 -7 7 -7
-3 -29 5 -48 17 -19 13 -47 29 -62 36 -15 6 -30 19 -33 27 -4 8 -10 12 -16 9
-5 -3 -28 7 -51 22 -23 16 -44 29 -47 29 -12 2 -56 29 -75 46 -11 10 -24 19
-30 19 -16 3 -82 38 -96 52 -8 7 -25 19 -39 26 -14 6 -32 16 -40 22 -8 5 -57
35 -107 66 -51 31 -93 60 -93 66 0 5 -4 7 -8 4 -12 -7 -208 123 -204 135 1 6
-2 8 -8 4 -11 -7 -224 125 -215 133 11 11 -28 42 -40 32 -7 -6 -20 -1 -38 16
-15 13 -30 25 -34 25 -5 1 -7 5 -5 11 1 5 -2 7 -8 3 -8 -5 -64 27 -80 46 -3 3
-12 9 -20 12 -8 3 1513 6 3380 6 l3395 1 -37 -25z m-6522 -122 c-7 -7 -26 7
-26 19 0 6 6 6 15 -2 9 -7 13 -15 11 -17z"/>
<path d="M37396 32819 c21 -23 23 -23 20 -2 -2 9 -11 17 -20 19 -17 2 -17 2 0
-17z"/>
<path d="M37656 32611 c-4 -5 -2 -12 3 -15 5 -4 12 -2 15 3 4 5 2 12 -3 15 -5
4 -12 2 -15 -3z"/>
<path d="M37736 32531 c-4 -5 -2 -12 3 -15 5 -4 12 -2 15 3 4 5 2 12 -3 15 -5
4 -12 2 -15 -3z"/>
<path d="M37886 32361 c-4 -5 -2 -12 3 -15 5 -4 12 -2 15 3 4 5 2 12 -3 15 -5
4 -12 2 -15 -3z"/>
<path d="M38103 32123 c0 -9 4 -10 14 -2 7 6 13 12 13 14 0 1 -6 2 -13 2 -8 0
-14 -6 -14 -14z"/>
<path d="M38596 31652 c-3 -5 1 -9 9 -9 8 0 12 4 9 9 -3 4 -7 8 -9 8 -2 0 -6
-4 -9 -8z"/>
<path d="M42116 28368 c3 -5 10 -6 15 -3 13 9 11 12 -6 12 -8 0 -12 -4 -9 -9z"/>
<path d="M60025 28269 c-11 -16 -1 -19 13 -3 7 8 8 14 3 14 -5 0 -13 -5 -16
-11z"/>
<path d="M59770 28046 c0 -2 8 -10 18 -17 15 -13 16 -12 3 4 -13 16 -21 21
-21 13z"/>
<path d="M42545 27960 c3 -5 8 -10 11 -10 2 0 4 5 4 10 0 6 -5 10 -11 10 -5 0
-7 -4 -4 -10z"/>
<path d="M42666 27878 c3 -5 10 -6 15 -3 13 9 11 12 -6 12 -8 0 -12 -4 -9 -9z"/>
<path d="M59524 27808 c-4 -7 -4 -10 1 -6 4 4 15 2 24 -5 14 -11 14 -10 2 6
-16 20 -18 21 -27 5z"/>
<path d="M59453 27725 c0 -8 4 -12 9 -9 5 3 6 10 3 15 -9 13 -12 11 -12 -6z"/>
<path d="M59395 27700 c-3 -5 -1 -10 4 -10 6 0 11 5 11 10 0 6 -2 10 -4 10 -3
0 -8 -4 -11 -10z"/>
<path d="M43067 27508 c19 -21 31 -25 14 -5 -6 8 -9 16 -6 19 3 2 -2 5 -10 5
-13 0 -13 -3 2 -19z"/>
<path d="M43130 27456 c0 -2 7 -7 16 -10 8 -3 12 -2 9 4 -6 10 -25 14 -25 6z"/>
<path d="M58989 27313 c-13 -16 -12 -17 4 -4 9 7 17 15 17 17 0 8 -8 3 -21
-13z"/>
<path d="M43576 27078 c3 -5 10 -6 15 -3 13 9 11 12 -6 12 -8 0 -12 -4 -9 -9z"/>
<path d="M58583 26965 c0 -8 4 -12 9 -9 5 3 6 10 3 15 -9 13 -12 11 -12 -6z"/>
<path d="M43807 26909 c7 -7 15 -10 18 -7 3 3 -2 9 -12 12 -14 6 -15 5 -6 -5z"/>
<path d="M43893 26835 c0 -8 4 -12 9 -9 5 3 6 10 3 15 -9 13 -12 11 -12 -6z"/>
<path d="M43966 26768 c3 -5 10 -6 15 -3 13 9 11 12 -6 12 -8 0 -12 -4 -9 -9z"/>
<path d="M58244 26748 c-4 -7 -4 -10 1 -6 4 4 14 3 21 -3 9 -7 14 -6 20 3 4 7
4 10 -1 6 -4 -4 -14 -3 -21 3 -9 7 -14 6 -20 -3z"/>
<path d="M44133 26685 c0 -8 4 -12 9 -9 5 3 6 10 3 15 -9 13 -12 11 -12 -6z"/>
<path d="M58181 26664 c6 -7 16 -11 21 -8 11 7 3 17 -18 20 -12 2 -13 -1 -3
-12z"/>
<path d="M44225 26599 c-4 -6 -5 -12 -2 -15 2 -3 7 2 10 11 7 17 1 20 -8 4z"/>
<path d="M54425 23811 c-3 -5 -2 -12 3 -15 5 -3 9 1 9 9 0 17 -3 19 -12 6z"/>
<path d="M47890 23785 c0 -2 6 -8 13 -14 10 -8 14 -7 14 2 0 8 -6 14 -14 14
-7 0 -13 -1 -13 -2z"/>
<path d="M48085 23651 c-3 -5 -2 -12 3 -15 5 -3 9 1 9 9 0 17 -3 19 -12 6z"/>
<path d="M54085 23569 c-4 -6 -4 -13 -1 -16 3 -4 6 -1 6 6 0 7 5 9 12 5 7 -4
8 -3 4 4 -9 15 -13 15 -21 1z"/>
<path d="M53859 23473 c-13 -16 -12 -17 4 -4 16 13 21 21 13 21 -2 0 -10 -8
-17 -17z"/>
<path d="M48493 23385 c0 -8 4 -12 9 -9 5 3 6 10 3 15 -9 13 -12 11 -12 -6z"/>
<path d="M53806 23383 c-6 -14 -5 -15 5 -6 7 7 10 15 7 18 -3 3 -9 -2 -12 -12z"/>
<path d="M48620 23330 c-9 -6 -10 -10 -3 -10 6 0 15 5 18 10 8 12 4 12 -15 0z"/>
<path d="M53656 23302 c-3 -5 1 -9 9 -9 8 0 12 4 9 9 -3 4 -7 8 -9 8 -2 0 -6
-4 -9 -8z"/>
<path d="M53620 23280 c-9 -6 -10 -10 -3 -10 6 0 15 5 18 10 8 12 4 12 -15 0z"/>
<path d="M53494 23198 c-19 -23 -19 -23 2 -5 11 9 24 14 29 10 4 -5 5 -2 1 5
-9 16 -10 16 -32 -10z"/>
<path d="M52925 22931 c-3 -5 -2 -12 3 -15 5 -3 9 1 9 9 0 17 -3 19 -12 6z"/>
<path d="M50159 22523 c-13 -16 -12 -17 4 -4 9 7 17 15 17 17 0 8 -8 3 -21
-13z"/>
<path d="M50673 22345 c0 -8 4 -12 9 -9 5 3 6 10 3 15 -9 13 -12 11 -12 -6z"/>
<path d="M51626 22348 c3 -4 9 -8 15 -8 5 0 9 4 9 8 0 5 -7 9 -15 9 -8 0 -12
-4 -9 -9z"/>
<path d="M51285 22291 c-3 -5 -2 -12 3 -15 5 -3 9 1 9 9 0 17 -3 19 -12 6z"/>
</g>
</svg>
